<svg width="20" height="20" viewBox="0 0 20 20" fill="none" xmlns="http://www.w3.org/2000/svg">
<path fill-rule="evenodd" clip-rule="evenodd" d="M10.0007 1.97884C9.51128 1.97884 9.02789 2.07134 8.55046 2.25635C8.07302 2.44135 7.64334 2.67708 7.26139 2.96354C6.87945 3.25 6.5721 3.56033 6.33936 3.89453C6.10661 4.22873 5.99023 4.54503 5.99023 4.84342V7.70801C5.99023 8.26899 6.13048 8.98513 6.41097 9.85645C6.69146 10.7278 7.1301 11.4021 7.72689 11.8796C7.88205 11.9989 7.99843 12.1511 8.07601 12.3361C8.15359 12.5211 8.18045 12.7151 8.15658 12.918C8.12077 13.1089 8.04617 13.285 7.93278 13.4461C7.81939 13.6073 7.67318 13.7296 7.49414 13.8132L2.46322 16.1943C2.3916 16.2182 2.29313 16.2749 2.16781 16.3644C2.04248 16.4539 1.97982 16.6181 1.97982 16.8568V18.0205L18.0036 18.0026V16.8926C18.0036 16.5822 17.929 16.3883 17.7798 16.3107C17.6306 16.2331 17.55 16.1943 17.5381 16.1943L12.543 13.8311C12.3639 13.7475 12.2147 13.6252 12.0954 13.464C11.976 13.3029 11.9044 13.1209 11.8805 12.918C11.8567 12.7151 11.8835 12.5211 11.9611 12.3361C12.0387 12.1511 12.1551 11.9989 12.3102 11.8796C12.9309 11.4021 13.3695 10.7248 13.6261 9.84749C13.8828 8.97021 14.0111 8.25706 14.0111 7.70801V4.84342C14.0111 4.53309 13.8917 4.21083 13.653 3.87663C13.4143 3.54242 13.1069 3.23508 12.731 2.95459C12.355 2.6741 11.9253 2.44135 11.4419 2.25635C10.9585 2.07134 10.4781 1.97884 10.0007 1.97884ZM10.0007 0.833008C10.6333 0.833008 11.2569 0.952364 11.8716 1.19108C12.4863 1.4298 13.0353 1.74012 13.5187 2.12207C14.0021 2.50402 14.396 2.9337 14.7004 3.41113C15.0047 3.88857 15.1569 4.36599 15.1569 4.84342V7.70801C15.1569 8.05415 15.1211 8.45399 15.0495 8.90755C14.9779 9.36111 14.8585 9.82362 14.6914 10.2951C14.5243 10.7666 14.3035 11.2201 14.029 11.6558C13.7544 12.0914 13.4202 12.4644 13.0264 12.7747L18.0215 15.1559L18.5854 15.4692C18.9614 15.6781 19.1494 15.9497 19.1494 16.2839V18.0205C19.1494 18.3308 19.039 18.5964 18.8182 18.8172C18.5974 19.038 18.3318 19.1484 18.0215 19.1484H1.97982C1.65755 19.1484 1.38601 19.038 1.1652 18.8172C0.944389 18.5964 0.833984 18.3308 0.833984 18.0205V16.2839C0.833984 15.9735 1.02495 15.708 1.4069 15.4871L1.97982 15.1559L7.01074 12.7747C6.60492 12.4525 6.26476 12.0646 5.99023 11.611C5.71571 11.1574 5.49192 10.6949 5.31885 10.2235C5.14578 9.752 5.02344 9.29248 4.95182 8.84489C4.88021 8.3973 4.8444 8.01834 4.8444 7.70801V4.84342C4.8444 4.36599 4.9936 3.88857 5.29199 3.41113C5.59039 2.9337 5.98128 2.50402 6.46468 2.12207C6.94808 1.74012 7.50011 1.4298 8.12077 1.19108C8.74143 0.952364 9.36805 0.833008 10.0007 0.833008Z" fill="#1EBAD6"/>
</svg>
