<svg width="20" height="20" viewBox="0 0 20 20" fill="none" xmlns="http://www.w3.org/2000/svg">
<path fill-rule="evenodd" clip-rule="evenodd" d="M17.735 5C17.3411 5 17.004 5.14024 16.7235 5.42074C16.443 5.70123 16.3027 6.03841 16.3027 6.43229C16.3027 6.51584 16.3117 6.59641 16.3296 6.67399C16.3475 6.75157 16.3684 6.82617 16.3923 6.89779L12.901 9.9056C12.7697 9.81011 12.6295 9.73253 12.4803 9.67285C12.3311 9.61317 12.173 9.58333 12.0059 9.58333C11.8149 9.58333 11.6329 9.61914 11.4598 9.69076C11.2867 9.76237 11.1345 9.86382 11.0033 9.99512L8.264 8.61654C8.24013 8.24653 8.09391 7.93322 7.82536 7.67659C7.5568 7.41997 7.23156 7.29167 6.84961 7.29167C6.45573 7.29167 6.11855 7.43191 5.83805 7.7124C5.55756 7.99289 5.41732 8.33008 5.41732 8.72396C5.41732 8.83138 5.42925 8.93582 5.45312 9.03727C5.477 9.13873 5.5128 9.2372 5.56055 9.33268L2.76758 12.5374C2.68403 12.5136 2.60048 12.4927 2.51693 12.4748C2.43338 12.4569 2.34983 12.4479 2.26628 12.4479C1.87239 12.4479 1.53521 12.5882 1.25472 12.8687C0.974228 13.1491 0.833984 13.4863 0.833984 13.8802C0.833984 14.2741 0.974228 14.6113 1.25472 14.8918C1.53521 15.1723 1.87239 15.3125 2.26628 15.3125C2.66016 15.3125 2.99734 15.1723 3.27783 14.8918C3.55832 14.6113 3.69857 14.2741 3.69857 13.8802C3.69857 13.7847 3.68962 13.6922 3.67171 13.6027C3.65381 13.5132 3.62695 13.4266 3.59115 13.3431L6.41992 10.0846C6.49154 10.1085 6.56315 10.1264 6.63477 10.1383C6.70638 10.1503 6.77799 10.1562 6.84961 10.1562C7.05252 10.1562 7.24647 10.1145 7.43148 10.0309C7.61648 9.94737 7.77463 9.83399 7.90592 9.69076L10.5736 11.0335C10.5736 11.4274 10.7138 11.7616 10.9943 12.0361C11.2748 12.3107 11.612 12.4479 12.0059 12.4479C12.3997 12.4479 12.7369 12.3077 13.0174 12.0272C13.2979 11.7467 13.4382 11.4095 13.4382 11.0156V10.944L17.1621 7.73926C17.2457 7.77507 17.3352 7.8049 17.4307 7.82878C17.5261 7.85265 17.6276 7.86458 17.735 7.86458C18.1289 7.86458 18.4661 7.72434 18.7466 7.44385C19.0271 7.16336 19.1673 6.82617 19.1673 6.43229C19.1673 6.03841 19.0271 5.70123 18.7466 5.42074C18.4661 5.14024 18.1289 5 17.735 5Z" fill="white"/>
</svg>
