<svg width="20" height="20" viewBox="0 0 20 20" fill="none" xmlns="http://www.w3.org/2000/svg">
<path fill-rule="evenodd" clip-rule="evenodd" d="M19.8366 10.1937C19.9511 10.3209 20.0051 10.4671 19.9988 10.6325C19.9924 10.7978 19.932 10.9441 19.8175 11.0712C19.754 11.1221 19.6872 11.1634 19.6172 11.1952C19.5473 11.227 19.4742 11.2429 19.3979 11.2429C19.3088 11.2429 19.2262 11.227 19.1498 11.1952C19.0735 11.1634 19.01 11.1158 18.9591 11.0522L18.1388 10.1937V19.3316C18.1388 19.4969 18.0784 19.64 17.9575 19.7608C17.8367 19.8816 17.6936 19.942 17.5283 19.942H13.2551C13.0897 19.942 12.9467 19.8816 12.8258 19.7608C12.705 19.64 12.6446 19.4969 12.6446 19.3316V13.2269H7.77999L7.76091 19.3316C7.76091 19.4969 7.7005 19.64 7.57968 19.7608C7.45886 19.8816 7.31579 19.942 7.15045 19.942H2.89629C2.71824 19.942 2.57199 19.8816 2.45752 19.7608C2.34306 19.64 2.28583 19.4969 2.28583 19.3316V10.1937L1.46552 11.0522C1.33834 11.1666 1.19209 11.227 1.02675 11.2334C0.861418 11.2398 0.715163 11.1857 0.587983 11.0712C0.473521 10.9441 0.413111 10.7978 0.406752 10.6325C0.400393 10.4671 0.454444 10.3209 0.568906 10.1937L9.78307 0.597996C9.84666 0.534406 9.91661 0.486714 9.99292 0.454919C10.0692 0.423124 10.1455 0.407227 10.2218 0.407227C10.3109 0.407227 10.3935 0.423124 10.4698 0.454919C10.5461 0.486714 10.6097 0.534406 10.6606 0.597996L19.8366 10.1937ZM16.9178 9.01093C16.9178 8.98549 16.9242 8.96006 16.9369 8.93462L10.2218 1.91431L3.48768 8.93462C3.48768 8.96006 3.49086 8.98549 3.49722 9.01093C3.50358 9.03636 3.50676 9.0618 3.50676 9.08724V18.7211H6.53999L6.55907 12.6165C6.55907 12.4511 6.61948 12.3081 6.7403 12.1872C6.86112 12.0664 7.00419 12.006 7.16953 12.006H13.2551C13.4204 12.006 13.5635 12.0664 13.6843 12.1872C13.8051 12.3081 13.8655 12.4511 13.8655 12.6165V18.7211H16.9178V9.01093Z" fill="white"/>
</svg>
