<svg width="20" height="20" viewBox="0 0 20 20" fill="none" xmlns="http://www.w3.org/2000/svg">
<path fill-rule="evenodd" clip-rule="evenodd" d="M2.55273 9.58333H1.4069C1.25174 9.58333 1.11746 9.64003 1.00407 9.75342C0.890679 9.86681 0.833984 10.0011 0.833984 10.1562V11.3021C0.833984 11.4572 0.890679 11.5915 1.00407 11.7049C1.11746 11.8183 1.25174 11.875 1.4069 11.875H2.55273C2.7079 11.875 2.84218 11.8183 2.95557 11.7049C3.06896 11.5915 3.12565 11.4572 3.12565 11.3021V10.1562C3.12565 10.0011 3.06896 9.86681 2.95557 9.75342C2.84218 9.64003 2.7079 9.58333 2.55273 9.58333ZM18.5944 10.1562H6.56315C6.40799 10.1562 6.27371 10.2129 6.16032 10.3263C6.04693 10.4397 5.99023 10.574 5.99023 10.7292C5.99023 10.8843 6.04693 11.0186 6.16032 11.132C6.27371 11.2454 6.40799 11.3021 6.56315 11.3021H18.5944C18.7496 11.3021 18.8838 11.2454 18.9972 11.132C19.1106 11.0186 19.1673 10.8843 19.1673 10.7292C19.1673 10.574 19.1106 10.4397 18.9972 10.3263C18.8838 10.2129 18.7496 10.1562 18.5944 10.1562ZM2.55273 14.1667H1.4069C1.25174 14.1667 1.11746 14.2234 1.00407 14.3368C0.890679 14.4501 0.833984 14.5844 0.833984 14.7396V15.8854C0.833984 16.0406 0.890679 16.1749 1.00407 16.2882C1.11746 16.4016 1.25174 16.4583 1.4069 16.4583H2.55273C2.7079 16.4583 2.84218 16.4016 2.95557 16.2882C3.06896 16.1749 3.12565 16.0406 3.12565 15.8854V14.7396C3.12565 14.5844 3.06896 14.4501 2.95557 14.3368C2.84218 14.2234 2.7079 14.1667 2.55273 14.1667ZM18.5944 14.7396H6.56315C6.40799 14.7396 6.27371 14.7963 6.16032 14.9097C6.04693 15.0231 5.99023 15.1573 5.99023 15.3125C5.99023 15.4677 6.04693 15.6019 6.16032 15.7153C6.27371 15.8287 6.40799 15.8854 6.56315 15.8854H18.5944C18.7496 15.8854 18.8838 15.8287 18.9972 15.7153C19.1106 15.6019 19.1673 15.4677 19.1673 15.3125C19.1673 15.1573 19.1106 15.0231 18.9972 14.9097C18.8838 14.7963 18.7496 14.7396 18.5944 14.7396ZM2.55273 5H1.4069C1.25174 5 1.11746 5.05669 1.00407 5.17008C0.890679 5.28347 0.833984 5.41775 0.833984 5.57292V6.71875C0.833984 6.87392 0.890679 7.00819 1.00407 7.12158C1.11746 7.23497 1.25174 7.29167 1.4069 7.29167H2.55273C2.7079 7.29167 2.84218 7.23497 2.95557 7.12158C3.06896 7.00819 3.12565 6.87392 3.12565 6.71875V5.57292C3.12565 5.41775 3.06896 5.28347 2.95557 5.17008C2.84218 5.05669 2.7079 5 2.55273 5ZM6.56315 6.71875H18.5944C18.7496 6.71875 18.8838 6.66206 18.9972 6.54867C19.1106 6.43528 19.1673 6.301 19.1673 6.14583C19.1673 5.99067 19.1106 5.85639 18.9972 5.743C18.8838 5.62961 18.7496 5.57292 18.5944 5.57292H6.56315C6.40799 5.57292 6.27371 5.62961 6.16032 5.743C6.04693 5.85639 5.99023 5.99067 5.99023 6.14583C5.99023 6.301 6.04693 6.43528 6.16032 6.54867C6.27371 6.66206 6.40799 6.71875 6.56315 6.71875Z" fill="white"/>
</svg>
