<svg width="20" height="20" viewBox="0 0 20 20" fill="none" xmlns="http://www.w3.org/2000/svg">
<path fill-rule="evenodd" clip-rule="evenodd" d="M18.0215 7.84701C18.296 7.89475 18.5556 8.02902 18.8003 8.24984C19.045 8.47065 19.1673 8.74219 19.1673 9.06445V10.2103C19.1673 10.5206 19.045 10.7713 18.8003 10.9622C18.5556 11.1532 18.296 11.2845 18.0215 11.3561L16.5355 11.7142C16.4758 11.8932 16.4131 12.0633 16.3475 12.2244C16.2818 12.3856 16.2072 12.5437 16.1237 12.6989L16.9115 14.0238C17.0666 14.2625 17.1621 14.537 17.1979 14.8473C17.2337 15.1577 17.1382 15.4262 16.9115 15.653L16.1058 16.4587C15.879 16.6854 15.6045 16.7899 15.2822 16.772C14.96 16.7541 14.6795 16.6675 14.4408 16.5124L13.1517 15.6888C12.9846 15.7724 12.8175 15.8499 12.6504 15.9215C12.4833 15.9932 12.3043 16.0588 12.1133 16.1185L11.791 17.6045C11.7433 17.879 11.609 18.1386 11.3882 18.3833C11.1674 18.628 10.8958 18.7503 10.5736 18.7503H9.42773C9.1174 18.7503 8.86675 18.628 8.67578 18.3833C8.48481 18.1386 8.35352 17.879 8.2819 17.6045L7.92383 16.1364C7.73285 16.0767 7.54188 16.0081 7.35091 15.9305C7.15994 15.8529 6.97494 15.7664 6.7959 15.6709L5.47103 16.5124C5.24425 16.6675 4.96674 16.7541 4.63851 16.772C4.31027 16.7899 4.03874 16.6854 3.82389 16.4587L3.00033 15.653C2.78548 15.4262 2.69596 15.1577 2.73177 14.8473C2.76758 14.537 2.8571 14.2625 3.00033 14.0238L3.8418 12.6273C3.77018 12.484 3.70155 12.3378 3.63591 12.1886C3.57026 12.0394 3.51356 11.8813 3.46582 11.7142L1.97982 11.3561C1.70529 11.2845 1.44569 11.1532 1.20101 10.9622C0.956325 10.7713 0.833984 10.5206 0.833984 10.2103V9.06445C0.833984 8.74219 0.956325 8.47065 1.20101 8.24984C1.44569 8.02902 1.70529 7.89475 1.97982 7.84701L3.44792 7.52474C3.49566 7.35764 3.55534 7.19054 3.62695 7.02344C3.69857 6.85634 3.77018 6.6952 3.8418 6.54004L3.00033 5.14355C2.8571 4.90484 2.76758 4.63032 2.73177 4.31999C2.69596 4.00966 2.78548 3.7411 3.00033 3.51432L3.82389 2.70866C4.03874 2.48188 4.31027 2.37744 4.63851 2.39535C4.96674 2.41325 5.24425 2.49978 5.47103 2.65495L6.7959 3.49642C6.97494 3.40093 7.15695 3.3144 7.34196 3.23682C7.52696 3.15923 7.71495 3.0906 7.90592 3.03092L8.2819 1.56283C8.34158 1.2883 8.4669 1.0287 8.65788 0.784017C8.84885 0.539333 9.10547 0.416992 9.42773 0.416992H10.5736C10.8958 0.416992 11.1644 0.539333 11.3792 0.784017C11.5941 1.0287 11.7313 1.28233 11.791 1.54492L12.1133 3.04883C12.2923 3.10851 12.4684 3.17415 12.6414 3.24577C12.8145 3.31738 12.9846 3.39496 13.1517 3.47852L14.4408 2.65495C14.6795 2.49978 14.96 2.41325 15.2822 2.39535C15.6045 2.37744 15.879 2.48188 16.1058 2.70866L16.9115 3.51432C17.1382 3.7411 17.2337 4.00966 17.1979 4.31999C17.1621 4.63032 17.0666 4.90484 16.9115 5.14355L16.1237 6.46842C16.2072 6.63553 16.2878 6.80561 16.3654 6.97868C16.443 7.15175 16.5056 7.33377 16.5534 7.52474L18.0215 7.84701ZM18.0215 10.1208L18.0394 9.10026C18.0275 9.08832 17.9976 9.06744 17.9499 9.0376C17.9021 9.00776 17.8484 8.98687 17.7887 8.97493L15.6582 8.49154L15.4613 7.86491C15.4255 7.72168 15.3777 7.57845 15.318 7.43522C15.2584 7.29199 15.1867 7.1428 15.1032 6.98763L14.8167 6.41471L15.9447 4.53483C15.9805 4.48709 16.0073 4.43934 16.0252 4.3916C16.0431 4.34386 16.0521 4.30805 16.0521 4.28418L15.3001 3.55013C15.2643 3.55013 15.2255 3.5561 15.1838 3.56803C15.142 3.57997 15.1032 3.59787 15.0674 3.62174L13.2233 4.80339L12.6325 4.49902C12.4893 4.42741 12.346 4.35878 12.2028 4.29313C12.0596 4.22748 11.9104 4.17676 11.7552 4.14095L11.1286 3.92611L10.6631 1.75977C10.6512 1.71202 10.6332 1.66726 10.6094 1.62549L10.5736 1.56283H9.51725C9.49338 1.5867 9.46951 1.6225 9.44564 1.67025C9.42177 1.71799 9.40386 1.77767 9.39193 1.84928L8.87272 3.92611L8.264 4.12305C8.10883 4.17079 7.95367 4.22748 7.7985 4.29313C7.64334 4.35878 7.48817 4.43338 7.33301 4.51693L6.74219 4.82129L4.8265 3.60384L4.73698 3.55908C4.70117 3.54118 4.66536 3.52626 4.62956 3.51432L3.8776 4.26628C3.8776 4.30208 3.88656 4.34386 3.90446 4.3916C3.92236 4.43934 3.94922 4.49306 3.98503 4.55273L5.14876 6.48633L4.8623 7.04134C4.79069 7.19651 4.72803 7.33973 4.67432 7.47103C4.62061 7.60232 4.57585 7.73361 4.54004 7.86491L4.3431 8.49154L2.17676 8.97493C2.14095 8.98687 2.10216 9.00477 2.06038 9.02865C2.01861 9.05252 1.99175 9.06445 1.97982 9.06445V10.1208C2.00369 10.1446 2.0395 10.1655 2.08724 10.1834C2.13498 10.2013 2.19466 10.2163 2.26628 10.2282L4.361 10.7653L4.55794 11.374C4.59375 11.4934 4.63851 11.6157 4.69222 11.741C4.74593 11.8664 4.80859 11.9947 4.88021 12.126L5.14876 12.681L3.98503 14.6325C3.94922 14.6802 3.92236 14.728 3.90446 14.7757C3.88656 14.8235 3.8776 14.8652 3.8776 14.901L4.62956 15.6351C4.66536 15.6351 4.70416 15.6261 4.74593 15.6082C4.78771 15.5903 4.8265 15.5694 4.8623 15.5456L6.74219 14.346L7.33301 14.6504C7.48817 14.7339 7.64334 14.8085 7.7985 14.8742C7.95367 14.9398 8.10883 14.9965 8.264 15.0443L8.87272 15.2412L9.40983 17.3538C9.42177 17.4135 9.43669 17.4642 9.45459 17.506C9.47249 17.5478 9.49338 17.5806 9.51725 17.6045H10.5557C10.5676 17.5926 10.5885 17.5627 10.6183 17.515C10.6482 17.4672 10.6691 17.4195 10.681 17.3717L11.1465 15.2412L11.7731 15.0264C11.9163 14.9786 12.0596 14.9249 12.2028 14.8652C12.346 14.8056 12.4893 14.7399 12.6325 14.6683L13.2233 14.3639L15.1032 15.5635L15.1927 15.6082C15.2285 15.6261 15.2643 15.6411 15.3001 15.653L16.0521 14.901C16.0521 14.8652 16.0431 14.8235 16.0252 14.7757C16.0073 14.728 15.9805 14.6743 15.9447 14.6146L14.8167 12.7526L15.1032 12.1797C15.1748 12.0484 15.2375 11.9141 15.2912 11.7769C15.3449 11.6396 15.3956 11.4993 15.4434 11.3561L15.6403 10.7653L17.7708 10.2282C17.8305 10.2163 17.8812 10.2013 17.923 10.1834C17.9648 10.1655 17.9976 10.1446 18.0215 10.1208ZM10.0007 6.14616C10.9555 6.14616 11.7701 6.48036 12.4445 7.14876C13.1189 7.81717 13.4561 8.62879 13.4561 9.58366C13.4561 10.5385 13.1189 11.3501 12.4445 12.0186C11.7701 12.687 10.9555 13.0212 10.0007 13.0212C9.05772 13.0212 8.24908 12.687 7.57471 12.0186C6.90033 11.3501 6.56315 10.5385 6.56315 9.58366C6.56315 8.62879 6.90033 7.81717 7.57471 7.14876C8.24908 6.48036 9.05772 6.14616 10.0007 6.14616ZM10.0007 11.8753C10.6332 11.8753 11.1733 11.6515 11.6209 11.2039C12.0685 10.7563 12.2923 10.2163 12.2923 9.58366C12.2923 8.95106 12.0685 8.41097 11.6209 7.96338C11.1733 7.51579 10.6332 7.29199 10.0007 7.29199C9.36805 7.29199 8.82796 7.51579 8.38037 7.96338C7.93278 8.41097 7.70898 8.95106 7.70898 9.58366C7.70898 10.2163 7.93278 10.7563 8.38037 11.2039C8.82796 11.6515 9.36805 11.8753 10.0007 11.8753Z" fill="white"/>
</svg>
