<?xml version="1.0" encoding="utf-8"?>
<!-- Svg Vector Icons : http://www.onlinewebfonts.com/icon -->
<!DOCTYPE svg PUBLIC "-//W3C//DTD SVG 1.1//EN" "http://www.w3.org/Graphics/SVG/1.1/DTD/svg11.dtd">
<svg version="1.1" xmlns="http://www.w3.org/2000/svg" xmlns:xlink="http://www.w3.org/1999/xlink" x="0px" y="0px" viewBox="0 0 1000 1000" enable-background="new 0 0 1000 1000" xml:space="preserve">
<metadata> Svg Vector Icons : http://www.onlinewebfonts.com/icon </metadata>
<g><g transform="translate(0.000000,511.000000) scale(0.100000,-0.100000)"><path d="M6244.8,4129.6v-166l254.9-5.9l254.9-5.9l-262.8-276.6L6227,3398.6l-2-132.4v-134.3h543.3h543.3v158.1V3446l-270.7,5.9l-270.7,5.9l270.7,286.5l270.7,286.5l-4,128.4l-5.9,128.4l-527.5,5.9l-529.5,4V4129.6z"/><path d="M4545.6,3329.4v-138.3h217.3c120.5,0,217.3-5.9,217.3-11.9c0-7.9-102.7-122.5-227.2-254.9l-227.2-243v-120.5v-120.5H5000h476.2l-5.9,144.2l-5.9,142.3l-146.2-5.9c-81-4-185.7-2-233.2,5.9l-85,11.9l237.1,250.9l237.1,249v114.6v114.6h-464.3h-464.3V3329.4z"/><path d="M2964.9,2519.4v-118.6h199.6H3364l-199.6-215.4c-199.6-213.4-199.6-213.4-199.6-316.1v-100.8h405h405v118.6v118.5h-209.4h-209.4l209.4,225.2c203.5,217.3,209.4,227.2,209.4,316.1v90.9h-405h-405V2519.4z"/><path d="M1457.4,948.6C985.2,818.2,684.8,367.7,752-112.4c55.3-393.2,357.6-715.2,754.8-798.2c584.8-124.5,1144,329.9,1142,928.6c-2,266.7-77.1,458.4-258.8,652C2150.9,926.9,1779.4,1037.5,1457.4,948.6z"/><path d="M2964.9-167.7v-1146l3147.5,4l3145.5,5.9l5.9,217.3c7.9,290.4-25.7,675.7-75.1,867.4c-166,628.3-626.3,1057.1-1256.6,1167.7c-146.2,25.7-525.6,29.6-2568.6,29.6H2964.9V-167.7z"/><path d="M267.9-1359.1c-43.5-25.7-96.8-79-122.5-122.5l-45.4-79v-1122.3c0-1227-2-1203.3,116.6-1304c94.8-79,195.6-96.8,486-88.9c223.3,5.9,268.7,11.8,345.8,53.3c122.5,63.2,266.7,189.7,395.2,345.8l108.7,130.4H5000h3447.8l102.7-126.5c124.5-152.1,278.6-286.5,401.1-349.7c77.1-41.5,122.5-47.4,345.8-53.3c290.4-7.9,391.2,9.9,486,88.9c118.6,100.8,116.6,83,116.6,1240.8v1057.1H6280.3H2658.7l-5.9,71.1c-7.9,124.5-92.9,239.1-207.5,282.6c-37.5,13.8-401.1,21.7-1076.8,21.7H347L267.9-1359.1z"/></g></g>
</svg>